# xmcd CD database file
#
# Track frame offsets:
#	150
#	13835
#	34777
#	50395
#	69172
#	80577
#	99217
#	112220
#	133712
#	151815
#	167220
#	177200
#	194145
#	207695
#	223857
#	236602
#	253132
#	267237
#	282177
#	294602
#	311332
#	328042
#	338715
#
# Disc length: 4700 seconds
#
# Revision: 2
# Processed by: cddbd v1.5.2PL0 Copyright (c) Steve Scherf et al.
# Submitted via: CDex 1.51
#
DISCID=60125a17
DTITLE=Desert Rose Band - Roses At The Ritz
DYEAR=1987
DGENRE=Country
TTITLE0=Love Reunited
TTITLE1=Start All Over Again
TTITLE2=Everybody's Heroe
TTITLE3=For The Rich Man
TTITLE4=Time Between
TTITLE5=I Still Believe In You
TTITLE6=Can't Keep You In Love With Me
TTITLE7=Darkness In The Playground
TTITLE8=Once More
TTITLE9=Summer Wind
TTITLE10=Hello Trouble
TTITLE11=One Step Forward
TTITLE12=She Don't Love Nobody
TTITLE13=Why You Been Gone So Long
TTITLE14=Under Your Spell
TTITLE15=Livin' In The House
TTITLE16=Hard Times
TTITLE17=He' Back and I'm Blue
TTITLE18=You Can Close Your Eyes
TTITLE19=Just Tell Me Darling
TTITLE20=I Should Go Home At Night
TTITLE21=Runnin' The Road Blocks
TTITLE22=Ashes Of Love
EXTD=Live In New York 1989 YEAR: 1987
EXTT0=
EXTT1=
EXTT2=
EXTT3=
EXTT4=
EXTT5=
EXTT6=
EXTT7=
EXTT8=
EXTT9=
EXTT10=
EXTT11=
EXTT12=
EXTT13=
EXTT14=
EXTT15=
EXTT16=
EXTT17=
EXTT18=
EXTT19=
EXTT20=
EXTT21=
EXTT22=
PLAYORDER=
